<mxfile host="app.diagrams.net" modified="2024-01-30T11:04:35.705Z" agent="Mozilla/5.0 (Macintosh; Intel Mac OS X 10_15_7) AppleWebKit/537.36 (KHTML, like Gecko) Chrome/120.0.0.0 Safari/537.36" etag="gzLtapVWE494MRWhDc5h" version="22.1.21" type="github">
  <diagram name="第 1 页" id="5bD5V0VSk3nRDzrWZ_qd">
    <mxGraphModel dx="1026" dy="571" grid="1" gridSize="10" guides="1" tooltips="1" connect="1" arrows="1" fold="1" page="1" pageScale="1" pageWidth="827" pageHeight="1169" math="0" shadow="0">
      <root>
        <mxCell id="0" />
        <mxCell id="1" parent="0" />
        <mxCell id="HBR9RYiqLlMmqTVoNdml-16" style="edgeStyle=orthogonalEdgeStyle;rounded=0;orthogonalLoop=1;jettySize=auto;html=1;exitX=1;exitY=0.5;exitDx=0;exitDy=0;" edge="1" parent="1" source="HBR9RYiqLlMmqTVoNdml-2" target="HBR9RYiqLlMmqTVoNdml-4">
          <mxGeometry relative="1" as="geometry" />
        </mxCell>
        <mxCell id="HBR9RYiqLlMmqTVoNdml-2" value="创建项目" style="rounded=1;whiteSpace=wrap;html=1;" vertex="1" parent="1">
          <mxGeometry x="130" y="90.75" width="90" height="32.5" as="geometry" />
        </mxCell>
        <mxCell id="HBR9RYiqLlMmqTVoNdml-3" style="edgeStyle=orthogonalEdgeStyle;rounded=0;orthogonalLoop=1;jettySize=auto;html=1;exitX=0.5;exitY=1;exitDx=0;exitDy=0;" edge="1" parent="1" source="HBR9RYiqLlMmqTVoNdml-2" target="HBR9RYiqLlMmqTVoNdml-2">
          <mxGeometry relative="1" as="geometry" />
        </mxCell>
        <mxCell id="HBR9RYiqLlMmqTVoNdml-17" style="edgeStyle=orthogonalEdgeStyle;rounded=0;orthogonalLoop=1;jettySize=auto;html=1;exitX=1;exitY=0.5;exitDx=0;exitDy=0;entryX=0;entryY=0.5;entryDx=0;entryDy=0;" edge="1" parent="1" source="HBR9RYiqLlMmqTVoNdml-4" target="HBR9RYiqLlMmqTVoNdml-5">
          <mxGeometry relative="1" as="geometry" />
        </mxCell>
        <mxCell id="HBR9RYiqLlMmqTVoNdml-4" value="权限中心赋予创建者权限" style="rounded=1;whiteSpace=wrap;html=1;" vertex="1" parent="1">
          <mxGeometry x="290" y="90.75" width="90" height="32.5" as="geometry" />
        </mxCell>
        <mxCell id="HBR9RYiqLlMmqTVoNdml-18" style="edgeStyle=orthogonalEdgeStyle;rounded=0;orthogonalLoop=1;jettySize=auto;html=1;exitX=1;exitY=0.5;exitDx=0;exitDy=0;entryX=0;entryY=0.5;entryDx=0;entryDy=0;" edge="1" parent="1" source="HBR9RYiqLlMmqTVoNdml-5" target="HBR9RYiqLlMmqTVoNdml-6">
          <mxGeometry relative="1" as="geometry" />
        </mxCell>
        <mxCell id="HBR9RYiqLlMmqTVoNdml-5" value="存入全局成员列表" style="rounded=1;whiteSpace=wrap;html=1;" vertex="1" parent="1">
          <mxGeometry x="440" y="90" width="90" height="32.5" as="geometry" />
        </mxCell>
        <mxCell id="HBR9RYiqLlMmqTVoNdml-19" value="" style="edgeStyle=orthogonalEdgeStyle;rounded=0;orthogonalLoop=1;jettySize=auto;html=1;" edge="1" parent="1" source="HBR9RYiqLlMmqTVoNdml-6" target="HBR9RYiqLlMmqTVoNdml-7">
          <mxGeometry relative="1" as="geometry" />
        </mxCell>
        <mxCell id="HBR9RYiqLlMmqTVoNdml-6" value="访问GaaS" style="rounded=1;whiteSpace=wrap;html=1;" vertex="1" parent="1">
          <mxGeometry x="600" y="170" width="90" height="32.5" as="geometry" />
        </mxCell>
        <mxCell id="HBR9RYiqLlMmqTVoNdml-62" style="edgeStyle=orthogonalEdgeStyle;rounded=0;orthogonalLoop=1;jettySize=auto;html=1;exitX=0;exitY=0.5;exitDx=0;exitDy=0;entryX=1;entryY=0.5;entryDx=0;entryDy=0;" edge="1" parent="1" source="HBR9RYiqLlMmqTVoNdml-7" target="HBR9RYiqLlMmqTVoNdml-61">
          <mxGeometry relative="1" as="geometry" />
        </mxCell>
        <mxCell id="HBR9RYiqLlMmqTVoNdml-7" value="GaaS通过链接获取当前项目id" style="rounded=1;whiteSpace=wrap;html=1;" vertex="1" parent="1">
          <mxGeometry x="600" y="265.25" width="90" height="40" as="geometry" />
        </mxCell>
        <mxCell id="HBR9RYiqLlMmqTVoNdml-21" style="edgeStyle=orthogonalEdgeStyle;rounded=0;orthogonalLoop=1;jettySize=auto;html=1;exitX=0;exitY=0.5;exitDx=0;exitDy=0;entryX=1;entryY=0.5;entryDx=0;entryDy=0;" edge="1" parent="1" source="HBR9RYiqLlMmqTVoNdml-9" target="HBR9RYiqLlMmqTVoNdml-10">
          <mxGeometry relative="1" as="geometry" />
        </mxCell>
        <mxCell id="HBR9RYiqLlMmqTVoNdml-9" value="通过项目id拉取全局成员列表" style="rounded=1;whiteSpace=wrap;html=1;" vertex="1" parent="1">
          <mxGeometry x="290" y="269" width="90" height="32.5" as="geometry" />
        </mxCell>
        <mxCell id="HBR9RYiqLlMmqTVoNdml-22" style="edgeStyle=orthogonalEdgeStyle;rounded=0;orthogonalLoop=1;jettySize=auto;html=1;exitX=0.5;exitY=1;exitDx=0;exitDy=0;entryX=0.5;entryY=0;entryDx=0;entryDy=0;" edge="1" parent="1" source="HBR9RYiqLlMmqTVoNdml-10" target="HBR9RYiqLlMmqTVoNdml-11">
          <mxGeometry relative="1" as="geometry" />
        </mxCell>
        <mxCell id="HBR9RYiqLlMmqTVoNdml-10" value="拿到创建者uid" style="rounded=1;whiteSpace=wrap;html=1;" vertex="1" parent="1">
          <mxGeometry x="140" y="269.75" width="90" height="32.5" as="geometry" />
        </mxCell>
        <mxCell id="HBR9RYiqLlMmqTVoNdml-23" style="edgeStyle=orthogonalEdgeStyle;rounded=0;orthogonalLoop=1;jettySize=auto;html=1;exitX=0.5;exitY=1;exitDx=0;exitDy=0;entryX=0.5;entryY=0;entryDx=0;entryDy=0;" edge="1" parent="1" source="HBR9RYiqLlMmqTVoNdml-11" target="HBR9RYiqLlMmqTVoNdml-12">
          <mxGeometry relative="1" as="geometry" />
        </mxCell>
        <mxCell id="HBR9RYiqLlMmqTVoNdml-11" value="存入GaaS自己的权限列表，授予最高权限" style="rounded=1;whiteSpace=wrap;html=1;" vertex="1" parent="1">
          <mxGeometry x="140" y="337" width="90" height="50" as="geometry" />
        </mxCell>
        <mxCell id="HBR9RYiqLlMmqTVoNdml-78" style="edgeStyle=orthogonalEdgeStyle;rounded=0;orthogonalLoop=1;jettySize=auto;html=1;exitX=0.5;exitY=1;exitDx=0;exitDy=0;entryX=0.5;entryY=0;entryDx=0;entryDy=0;" edge="1" parent="1" source="HBR9RYiqLlMmqTVoNdml-12" target="HBR9RYiqLlMmqTVoNdml-13">
          <mxGeometry relative="1" as="geometry" />
        </mxCell>
        <mxCell id="HBR9RYiqLlMmqTVoNdml-12" value="创建者在全局成员管理里添加其他用户" style="rounded=1;whiteSpace=wrap;html=1;" vertex="1" parent="1">
          <mxGeometry x="140" y="429.25" width="90" height="51.25" as="geometry" />
        </mxCell>
        <mxCell id="HBR9RYiqLlMmqTVoNdml-79" style="edgeStyle=orthogonalEdgeStyle;rounded=0;orthogonalLoop=1;jettySize=auto;html=1;exitX=0.5;exitY=1;exitDx=0;exitDy=0;" edge="1" parent="1" source="HBR9RYiqLlMmqTVoNdml-13" target="HBR9RYiqLlMmqTVoNdml-14">
          <mxGeometry relative="1" as="geometry" />
        </mxCell>
        <mxCell id="HBR9RYiqLlMmqTVoNdml-13" value="创建者在GaaS权限管理里为其他用户授权" style="rounded=1;whiteSpace=wrap;html=1;" vertex="1" parent="1">
          <mxGeometry x="140" y="515.13" width="90" height="51.25" as="geometry" />
        </mxCell>
        <mxCell id="HBR9RYiqLlMmqTVoNdml-14" value="正常使用" style="ellipse;whiteSpace=wrap;html=1;" vertex="1" parent="1">
          <mxGeometry x="150" y="610.75" width="70" height="40" as="geometry" />
        </mxCell>
        <mxCell id="HBR9RYiqLlMmqTVoNdml-54" style="edgeStyle=orthogonalEdgeStyle;rounded=0;orthogonalLoop=1;jettySize=auto;html=1;exitX=1;exitY=0.5;exitDx=0;exitDy=0;entryX=0;entryY=0.5;entryDx=0;entryDy=0;" edge="1" parent="1" source="HBR9RYiqLlMmqTVoNdml-55" target="HBR9RYiqLlMmqTVoNdml-56">
          <mxGeometry relative="1" as="geometry" />
        </mxCell>
        <mxCell id="HBR9RYiqLlMmqTVoNdml-55" value="普通成员登录" style="rounded=1;whiteSpace=wrap;html=1;" vertex="1" parent="1">
          <mxGeometry x="130" y="170" width="90" height="32.5" as="geometry" />
        </mxCell>
        <mxCell id="HBR9RYiqLlMmqTVoNdml-59" style="edgeStyle=orthogonalEdgeStyle;rounded=0;orthogonalLoop=1;jettySize=auto;html=1;exitX=1;exitY=0.5;exitDx=0;exitDy=0;" edge="1" parent="1" source="HBR9RYiqLlMmqTVoNdml-56" target="HBR9RYiqLlMmqTVoNdml-6">
          <mxGeometry relative="1" as="geometry" />
        </mxCell>
        <mxCell id="HBR9RYiqLlMmqTVoNdml-56" value="权限中心判断是否有模块访问权限" style="rounded=1;whiteSpace=wrap;html=1;" vertex="1" parent="1">
          <mxGeometry x="290" y="164" width="90" height="46.25" as="geometry" />
        </mxCell>
        <mxCell id="HBR9RYiqLlMmqTVoNdml-60" value="有" style="text;html=1;strokeColor=none;fillColor=none;align=center;verticalAlign=middle;whiteSpace=wrap;rounded=0;" vertex="1" parent="1">
          <mxGeometry x="444" y="160" width="60" height="30" as="geometry" />
        </mxCell>
        <mxCell id="HBR9RYiqLlMmqTVoNdml-63" style="edgeStyle=orthogonalEdgeStyle;rounded=0;orthogonalLoop=1;jettySize=auto;html=1;exitX=0;exitY=0.5;exitDx=0;exitDy=0;entryX=1;entryY=0.5;entryDx=0;entryDy=0;" edge="1" parent="1" source="HBR9RYiqLlMmqTVoNdml-61" target="HBR9RYiqLlMmqTVoNdml-9">
          <mxGeometry relative="1" as="geometry" />
        </mxCell>
        <mxCell id="HBR9RYiqLlMmqTVoNdml-67" style="edgeStyle=orthogonalEdgeStyle;rounded=0;orthogonalLoop=1;jettySize=auto;html=1;exitX=0.5;exitY=1;exitDx=0;exitDy=0;entryX=0.5;entryY=0;entryDx=0;entryDy=0;" edge="1" parent="1" source="HBR9RYiqLlMmqTVoNdml-61">
          <mxGeometry relative="1" as="geometry">
            <mxPoint x="490" y="388.38" as="targetPoint" />
          </mxGeometry>
        </mxCell>
        <mxCell id="HBR9RYiqLlMmqTVoNdml-61" value="查询GaaS内部是否已有该项目注册" style="rhombus;whiteSpace=wrap;html=1;" vertex="1" parent="1">
          <mxGeometry x="450" y="245" width="80" height="80" as="geometry" />
        </mxCell>
        <mxCell id="HBR9RYiqLlMmqTVoNdml-64" value="没有" style="text;html=1;strokeColor=none;fillColor=none;align=center;verticalAlign=middle;whiteSpace=wrap;rounded=0;" vertex="1" parent="1">
          <mxGeometry x="390" y="252" width="60" height="30" as="geometry" />
        </mxCell>
        <mxCell id="HBR9RYiqLlMmqTVoNdml-65" value="有" style="text;html=1;strokeColor=none;fillColor=none;align=center;verticalAlign=middle;whiteSpace=wrap;rounded=0;" vertex="1" parent="1">
          <mxGeometry x="474" y="337" width="60" height="30" as="geometry" />
        </mxCell>
        <mxCell id="HBR9RYiqLlMmqTVoNdml-70" style="edgeStyle=orthogonalEdgeStyle;rounded=0;orthogonalLoop=1;jettySize=auto;html=1;exitX=0.5;exitY=1;exitDx=0;exitDy=0;entryX=0.5;entryY=0;entryDx=0;entryDy=0;" edge="1" parent="1" target="HBR9RYiqLlMmqTVoNdml-69">
          <mxGeometry relative="1" as="geometry">
            <mxPoint x="490" y="450" as="sourcePoint" />
          </mxGeometry>
        </mxCell>
        <mxCell id="HBR9RYiqLlMmqTVoNdml-69" value="正常使用" style="ellipse;whiteSpace=wrap;html=1;" vertex="1" parent="1">
          <mxGeometry x="455" y="520" width="70" height="40" as="geometry" />
        </mxCell>
        <mxCell id="HBR9RYiqLlMmqTVoNdml-71" value="有" style="text;html=1;strokeColor=none;fillColor=none;align=center;verticalAlign=middle;whiteSpace=wrap;rounded=0;" vertex="1" parent="1">
          <mxGeometry x="474" y="470" width="60" height="30" as="geometry" />
        </mxCell>
        <mxCell id="HBR9RYiqLlMmqTVoNdml-73" style="edgeStyle=orthogonalEdgeStyle;rounded=0;orthogonalLoop=1;jettySize=auto;html=1;exitX=1;exitY=0.5;exitDx=0;exitDy=0;" edge="1" parent="1" source="HBR9RYiqLlMmqTVoNdml-72">
          <mxGeometry relative="1" as="geometry">
            <mxPoint x="610" y="430" as="targetPoint" />
          </mxGeometry>
        </mxCell>
        <mxCell id="HBR9RYiqLlMmqTVoNdml-72" value="GaaS内部判断该用户是否有GaaS使用权限" style="rhombus;whiteSpace=wrap;html=1;" vertex="1" parent="1">
          <mxGeometry x="450" y="390" width="80" height="80" as="geometry" />
        </mxCell>
        <mxCell id="HBR9RYiqLlMmqTVoNdml-74" value="没有" style="text;html=1;strokeColor=none;fillColor=none;align=center;verticalAlign=middle;whiteSpace=wrap;rounded=0;" vertex="1" parent="1">
          <mxGeometry x="533" y="398.5" width="60" height="30" as="geometry" />
        </mxCell>
        <mxCell id="HBR9RYiqLlMmqTVoNdml-76" value="提示权限不足" style="ellipse;whiteSpace=wrap;html=1;" vertex="1" parent="1">
          <mxGeometry x="610" y="410" width="70" height="40" as="geometry" />
        </mxCell>
      </root>
    </mxGraphModel>
  </diagram>
</mxfile>
